<?xml version="1.0" encoding="utf-8" standalone="no"?>
<!DOCTYPE svg PUBLIC "-//W3C//DTD SVG 1.1//EN"
  "http://www.w3.org/Graphics/SVG/1.1/DTD/svg11.dtd">
<svg xmlns:xlink="http://www.w3.org/1999/xlink" width="216pt" height="288pt" viewBox="0 0 216 288" xmlns="http://www.w3.org/2000/svg" version="1.1">
 <metadata>
  <rdf:RDF xmlns:dc="http://purl.org/dc/elements/1.1/" xmlns:cc="http://creativecommons.org/ns#" xmlns:rdf="http://www.w3.org/1999/02/22-rdf-syntax-ns#">
   <cc:Work>
    <dc:type rdf:resource="http://purl.org/dc/dcmitype/StillImage"/>
    <dc:date>2022-01-15T22:12:26.727427</dc:date>
    <dc:format>image/svg+xml</dc:format>
    <dc:creator>
     <cc:Agent>
      <dc:title>Matplotlib v3.5.0, https://matplotlib.org/</dc:title>
     </cc:Agent>
    </dc:creator>
   </cc:Work>
  </rdf:RDF>
 </metadata>
 <defs>
  <style type="text/css">*{stroke-linejoin: round; stroke-linecap: butt}</style>
 </defs>
 <g id="figure_1">
  <g id="patch_1">
   <path d="M 0 288 
L 216 288 
L 216 0 
L 0 0 
L 0 288 
z
" style="fill: none"/>
  </g>
  <g id="axes_1">
   <g id="patch_2">
    <path d="M 27 252 
L 194.4 252 
L 194.4 34.56 
L 27 34.56 
z
" style="fill: #ffffff"/>
   </g>
   <g id="matplotlib.axis_1">
    <g id="xtick_1">
     <g id="line2d_1">
      <defs>
       <path id="ma50b094dfe" d="M 0 0 
L 0 3.5 
" style="stroke: #000000; stroke-width: 0.8"/>
      </defs>
      <g>
       <use xlink:href="#ma50b094dfe" x="27" y="252" style="stroke: #000000; stroke-width: 0.8"/>
      </g>
     </g>
     <g id="text_1">
      <!-- 0.0 -->
      <g transform="translate(20.75 266.275)scale(0.1 -0.1)">
       <defs>
        <path id="Palatino-Roman-30" d="M 194 1934 
Q 194 2825 322 3309 
Q 450 3794 787 4109 
Q 1125 4425 1644 4425 
Q 1906 4425 2129 4336 
Q 2353 4247 2495 4111 
Q 2638 3975 2736 3776 
Q 2834 3578 2875 3378 
Q 2969 2922 2969 2384 
Q 2969 1684 2859 1184 
Q 2797 900 2681 664 
Q 2566 428 2406 262 
Q 2247 97 2022 -1 
Q 1797 -100 1516 -100 
Q 1175 -100 931 44 
Q 688 188 544 413 
Q 344 734 269 1148 
Q 194 1563 194 1934 
z
M 731 2116 
Q 731 1666 790 1233 
Q 850 800 978 531 
Q 1066 350 1234 234 
Q 1403 119 1613 119 
Q 1969 119 2159 416 
Q 2434 841 2434 2106 
Q 2434 2650 2376 3083 
Q 2319 3516 2184 3794 
Q 2097 3972 1939 4086 
Q 1781 4200 1559 4200 
Q 1316 4200 1123 4044 
Q 931 3888 831 3477 
Q 731 3066 731 2116 
z
" transform="scale(0.015625)"/>
        <path id="Palatino-Roman-2e" d="M 800 716 
Q 956 716 1064 606 
Q 1172 497 1172 341 
Q 1172 188 1062 78 
Q 953 -31 800 -31 
Q 644 -31 534 78 
Q 425 188 425 341 
Q 425 497 534 606 
Q 644 716 800 716 
z
" transform="scale(0.015625)"/>
       </defs>
       <use xlink:href="#Palatino-Roman-30"/>
       <use xlink:href="#Palatino-Roman-2e" x="50"/>
       <use xlink:href="#Palatino-Roman-30" x="75"/>
      </g>
     </g>
    </g>
    <g id="xtick_2">
     <g id="line2d_2">
      <g>
       <use xlink:href="#ma50b094dfe" x="61.875" y="252" style="stroke: #000000; stroke-width: 0.8"/>
      </g>
     </g>
     <g id="text_2">
      <!-- 2.5 -->
      <g transform="translate(55.625 266.275)scale(0.1 -0.1)">
       <defs>
        <path id="Palatino-Roman-32" d="M 106 0 
L 106 175 
Q 203 297 456 556 
L 1153 1281 
Q 1234 1366 1550 1722 
Q 1788 1994 1922 2217 
Q 2056 2441 2118 2652 
Q 2181 2863 2181 3053 
Q 2181 3378 2000 3616 
Q 1766 3931 1319 3931 
Q 1069 3931 881 3850 
Q 694 3769 630 3670 
Q 566 3572 441 3106 
L 253 3106 
Q 328 3525 359 3969 
Q 556 4156 689 4237 
Q 822 4319 1015 4367 
Q 1209 4416 1438 4416 
Q 1847 4416 2128 4277 
Q 2409 4138 2578 3863 
Q 2747 3588 2747 3241 
Q 2747 2866 2555 2502 
Q 2363 2138 1756 1534 
L 1222 1003 
Q 931 713 781 541 
L 2153 541 
Q 2566 541 2963 581 
L 2984 556 
Q 2966 438 2966 278 
Q 2966 134 2984 34 
L 2963 0 
Q 2741 13 2456 19 
Q 1819 31 1603 31 
Q 1331 31 688 19 
Q 334 13 106 0 
z
" transform="scale(0.015625)"/>
        <path id="Palatino-Roman-35" d="M 413 69 
Q 341 281 297 394 
L 91 903 
L 244 994 
Q 525 481 590 420 
Q 656 359 884 278 
Q 1113 197 1350 197 
Q 1663 197 1898 328 
Q 2134 459 2264 720 
Q 2394 981 2394 1350 
Q 2394 1894 2098 2156 
Q 1803 2419 1400 2419 
Q 1163 2419 969 2328 
Q 822 2256 619 2034 
L 491 2072 
L 528 2844 
Q 534 3019 534 3128 
L 534 3684 
Q 534 3934 519 4184 
Q 513 4281 509 4341 
L 550 4372 
Q 1059 4334 1619 4334 
Q 2094 4334 2756 4372 
L 2772 4341 
Q 2750 4181 2750 4053 
Q 2750 3991 2756 3838 
L 2725 3819 
Q 2291 3847 1425 3847 
Q 1106 3847 822 3838 
Q 775 3406 759 2538 
Q 1009 2719 1209 2789 
Q 1409 2859 1653 2859 
Q 2016 2859 2317 2704 
Q 2619 2550 2781 2259 
Q 2944 1969 2944 1622 
Q 2944 1081 2575 616 
Q 2019 -91 1081 -91 
Q 875 -91 729 -55 
Q 584 -19 413 69 
z
" transform="scale(0.015625)"/>
       </defs>
       <use xlink:href="#Palatino-Roman-32"/>
       <use xlink:href="#Palatino-Roman-2e" x="50"/>
       <use xlink:href="#Palatino-Roman-35" x="75"/>
      </g>
     </g>
    </g>
    <g id="xtick_3">
     <g id="line2d_3">
      <g>
       <use xlink:href="#ma50b094dfe" x="96.75" y="252" style="stroke: #000000; stroke-width: 0.8"/>
      </g>
     </g>
     <g id="text_3">
      <!-- 5.0 -->
      <g transform="translate(90.5 266.275)scale(0.1 -0.1)">
       <use xlink:href="#Palatino-Roman-35"/>
       <use xlink:href="#Palatino-Roman-2e" x="50"/>
       <use xlink:href="#Palatino-Roman-30" x="75"/>
      </g>
     </g>
    </g>
    <g id="xtick_4">
     <g id="line2d_4">
      <g>
       <use xlink:href="#ma50b094dfe" x="131.625" y="252" style="stroke: #000000; stroke-width: 0.8"/>
      </g>
     </g>
     <g id="text_4">
      <!-- 7.5 -->
      <g transform="translate(125.375 266.275)scale(0.1 -0.1)">
       <defs>
        <path id="Palatino-Roman-37" d="M 422 0 
L 356 66 
Q 466 228 975 1031 
Q 1141 1297 1800 2369 
Q 2069 2806 2525 3606 
Q 2566 3675 2638 3813 
L 2606 3844 
L 1638 3844 
Q 1347 3844 1034 3833 
Q 722 3822 653 3794 
Q 613 3778 594 3753 
L 569 3716 
L 478 3034 
L 294 3034 
L 309 3856 
Q 309 4059 294 4369 
L 356 4400 
Q 606 4378 1041 4359 
Q 1603 4338 1778 4338 
Q 2169 4338 3169 4381 
L 3169 4194 
L 2719 3397 
Q 2575 3138 2025 2122 
Q 1641 1409 1353 797 
Q 1134 334 1009 0 
Q 831 16 709 16 
Q 578 16 422 0 
z
" transform="scale(0.015625)"/>
       </defs>
       <use xlink:href="#Palatino-Roman-37"/>
       <use xlink:href="#Palatino-Roman-2e" x="50"/>
       <use xlink:href="#Palatino-Roman-35" x="75"/>
      </g>
     </g>
    </g>
    <g id="xtick_5">
     <g id="line2d_5">
      <g>
       <use xlink:href="#ma50b094dfe" x="166.5" y="252" style="stroke: #000000; stroke-width: 0.8"/>
      </g>
     </g>
     <g id="text_5">
      <!-- 10.0 -->
      <g transform="translate(157.75 266.275)scale(0.1 -0.1)">
       <defs>
        <path id="Palatino-Roman-31" d="M 478 3559 
L 422 3575 
L 391 3831 
L 422 3863 
Q 756 3959 1150 4128 
Q 1731 4375 1897 4459 
L 1978 4428 
Q 1928 2997 1928 2784 
L 1928 1625 
Q 1928 931 1944 575 
Q 1953 366 1995 311 
Q 2038 256 2120 232 
Q 2203 209 2663 191 
L 2663 0 
Q 1872 25 1672 25 
Q 1522 25 613 0 
L 613 191 
Q 1088 219 1161 236 
Q 1234 253 1270 287 
Q 1306 322 1322 384 
Q 1347 481 1365 942 
Q 1384 1403 1384 1641 
L 1384 2872 
Q 1384 3625 1381 3816 
Q 1381 3900 1359 3922 
Q 1347 3934 1325 3934 
Q 1297 3934 1181 3884 
Q 650 3647 478 3559 
z
" transform="scale(0.015625)"/>
       </defs>
       <use xlink:href="#Palatino-Roman-31"/>
       <use xlink:href="#Palatino-Roman-30" x="50"/>
       <use xlink:href="#Palatino-Roman-2e" x="100"/>
       <use xlink:href="#Palatino-Roman-30" x="125"/>
      </g>
     </g>
    </g>
    <g id="text_6">
     <!-- pH -->
     <g transform="translate(102.10125 281.759687)scale(0.12 -0.12)">
      <defs>
       <path id="Palatino-Roman-70" d="M 113 2572 
L 113 2753 
Q 169 2753 350 2779 
Q 531 2806 753 2870 
Q 975 2934 1088 2994 
Q 1122 3013 1144 3013 
Q 1166 3013 1180 2997 
Q 1194 2981 1194 2944 
Q 1194 2928 1191 2869 
Q 1184 2778 1184 2703 
L 1184 2372 
Q 1713 2863 1844 2925 
Q 2016 3009 2356 3009 
Q 2753 3009 3040 2829 
Q 3328 2650 3458 2364 
Q 3588 2078 3588 1753 
Q 3588 1556 3542 1381 
Q 3497 1206 3426 1051 
Q 3356 897 3270 767 
Q 3184 638 3109 572 
Q 3066 531 2883 384 
Q 2700 238 2492 130 
Q 2284 22 2203 -3 
Q 2025 -59 1825 -59 
Q 1669 -59 1520 -21 
Q 1372 16 1184 106 
L 1184 -391 
Q 1200 -1181 1203 -1263 
Q 1206 -1416 1241 -1488 
Q 1253 -1522 1279 -1542 
Q 1306 -1563 1356 -1572 
Q 1384 -1578 1728 -1584 
L 1728 -1763 
Q 1338 -1747 694 -1747 
Q 338 -1747 147 -1763 
L 147 -1584 
L 444 -1581 
Q 509 -1578 545 -1558 
Q 581 -1538 600 -1506 
Q 634 -1444 644 -1284 
Q 647 -1244 663 -391 
L 663 719 
Q 663 1259 650 1828 
Q 638 2397 623 2448 
Q 609 2500 578 2526 
Q 547 2553 497 2563 
L 113 2572 
z
M 1184 644 
Q 1350 475 1562 378 
Q 1775 281 2009 281 
Q 2294 281 2526 423 
Q 2759 566 2895 866 
Q 3031 1166 3031 1519 
Q 3031 1859 2901 2111 
Q 2772 2363 2534 2489 
Q 2297 2616 2056 2616 
Q 1878 2616 1704 2545 
Q 1531 2475 1390 2340 
Q 1250 2206 1203 2084 
Q 1184 2025 1184 1856 
L 1184 644 
z
" transform="scale(0.015625)"/>
       <path id="Palatino-Roman-48" d="M 153 4241 
L 153 4441 
L 1109 4422 
L 1991 4441 
L 1991 4241 
Q 1619 4234 1539 4207 
Q 1459 4181 1428 4134 
Q 1391 4072 1381 3831 
Q 1378 3769 1369 2944 
L 1369 2509 
Q 1984 2488 2869 2488 
Q 3547 2488 3953 2509 
L 3953 2944 
Q 3953 3369 3941 3775 
Q 3931 4072 3895 4126 
Q 3859 4181 3779 4207 
Q 3700 4234 3328 4241 
L 3328 4441 
Q 4000 4422 4250 4422 
Q 4344 4422 5163 4441 
L 5163 4241 
Q 4794 4234 4712 4207 
Q 4631 4181 4603 4134 
Q 4563 4072 4553 3831 
Q 4550 3769 4541 2944 
L 4541 1497 
Q 4541 1072 4553 669 
Q 4559 372 4595 315 
Q 4631 259 4712 232 
Q 4794 206 5163 200 
L 5163 0 
Q 4559 25 4175 25 
Q 3766 25 3328 0 
L 3328 200 
Q 3700 206 3779 232 
Q 3859 259 3891 306 
Q 3931 369 3938 609 
Q 3941 675 3953 1497 
L 3953 2209 
Q 3078 2228 2625 2228 
Q 2131 2228 1369 2209 
L 1369 1497 
Q 1369 1072 1378 669 
Q 1388 372 1423 315 
Q 1459 259 1539 232 
Q 1619 206 1991 200 
L 1991 0 
Q 1569 28 1122 28 
Q 634 28 153 0 
L 153 200 
Q 522 206 603 232 
Q 684 259 716 306 
Q 753 369 763 609 
Q 766 675 775 1497 
L 775 2944 
Q 775 3369 766 3775 
Q 756 4072 720 4126 
Q 684 4181 604 4207 
Q 525 4234 153 4241 
z
" transform="scale(0.015625)"/>
      </defs>
      <use xlink:href="#Palatino-Roman-70"/>
      <use xlink:href="#Palatino-Roman-48" x="60.107422"/>
     </g>
    </g>
   </g>
   <g id="matplotlib.axis_2">
    <g id="ytick_1">
     <g id="line2d_6">
      <defs>
       <path id="mcfacb203f6" d="M 0 0 
L -3.5 0 
" style="stroke: #000000; stroke-width: 0.8"/>
      </defs>
      <g>
       <use xlink:href="#mcfacb203f6" x="27" y="252" style="stroke: #000000; stroke-width: 0.8"/>
      </g>
     </g>
     <g id="text_7">
      <!-- −1.00 -->
      <g transform="translate(-3.559375 255.6375)scale(0.1 -0.1)">
       <defs>
        <path id="Palatino-Roman-2212" d="M 234 2063 
L 3653 2063 
L 3650 1716 
L 231 1716 
L 234 2063 
z
" transform="scale(0.015625)"/>
       </defs>
       <use xlink:href="#Palatino-Roman-2212"/>
       <use xlink:href="#Palatino-Roman-31" x="60.595703"/>
       <use xlink:href="#Palatino-Roman-2e" x="110.595703"/>
       <use xlink:href="#Palatino-Roman-30" x="135.595703"/>
       <use xlink:href="#Palatino-Roman-30" x="185.595703"/>
      </g>
     </g>
    </g>
    <g id="ytick_2">
     <g id="line2d_7">
      <g>
       <use xlink:href="#mcfacb203f6" x="27" y="224.82" style="stroke: #000000; stroke-width: 0.8"/>
      </g>
     </g>
     <g id="text_8">
      <!-- −0.75 -->
      <g transform="translate(-3.559375 228.4575)scale(0.1 -0.1)">
       <use xlink:href="#Palatino-Roman-2212"/>
       <use xlink:href="#Palatino-Roman-30" x="60.595703"/>
       <use xlink:href="#Palatino-Roman-2e" x="110.595703"/>
       <use xlink:href="#Palatino-Roman-37" x="135.595703"/>
       <use xlink:href="#Palatino-Roman-35" x="185.595703"/>
      </g>
     </g>
    </g>
    <g id="ytick_3">
     <g id="line2d_8">
      <g>
       <use xlink:href="#mcfacb203f6" x="27" y="197.64" style="stroke: #000000; stroke-width: 0.8"/>
      </g>
     </g>
     <g id="text_9">
      <!-- −0.50 -->
      <g transform="translate(-3.559375 201.2775)scale(0.1 -0.1)">
       <use xlink:href="#Palatino-Roman-2212"/>
       <use xlink:href="#Palatino-Roman-30" x="60.595703"/>
       <use xlink:href="#Palatino-Roman-2e" x="110.595703"/>
       <use xlink:href="#Palatino-Roman-35" x="135.595703"/>
       <use xlink:href="#Palatino-Roman-30" x="185.595703"/>
      </g>
     </g>
    </g>
    <g id="ytick_4">
     <g id="line2d_9">
      <g>
       <use xlink:href="#mcfacb203f6" x="27" y="170.46" style="stroke: #000000; stroke-width: 0.8"/>
      </g>
     </g>
     <g id="text_10">
      <!-- −0.25 -->
      <g transform="translate(-3.559375 174.0975)scale(0.1 -0.1)">
       <use xlink:href="#Palatino-Roman-2212"/>
       <use xlink:href="#Palatino-Roman-30" x="60.595703"/>
       <use xlink:href="#Palatino-Roman-2e" x="110.595703"/>
       <use xlink:href="#Palatino-Roman-32" x="135.595703"/>
       <use xlink:href="#Palatino-Roman-35" x="185.595703"/>
      </g>
     </g>
    </g>
    <g id="ytick_5">
     <g id="line2d_10">
      <g>
       <use xlink:href="#mcfacb203f6" x="27" y="143.28" style="stroke: #000000; stroke-width: 0.8"/>
      </g>
     </g>
     <g id="text_11">
      <!-- 0.00 -->
      <g transform="translate(2.5 146.9175)scale(0.1 -0.1)">
       <use xlink:href="#Palatino-Roman-30"/>
       <use xlink:href="#Palatino-Roman-2e" x="50"/>
       <use xlink:href="#Palatino-Roman-30" x="75"/>
       <use xlink:href="#Palatino-Roman-30" x="125"/>
      </g>
     </g>
    </g>
    <g id="ytick_6">
     <g id="line2d_11">
      <g>
       <use xlink:href="#mcfacb203f6" x="27" y="116.1" style="stroke: #000000; stroke-width: 0.8"/>
      </g>
     </g>
     <g id="text_12">
      <!-- 0.25 -->
      <g transform="translate(2.5 119.7375)scale(0.1 -0.1)">
       <use xlink:href="#Palatino-Roman-30"/>
       <use xlink:href="#Palatino-Roman-2e" x="50"/>
       <use xlink:href="#Palatino-Roman-32" x="75"/>
       <use xlink:href="#Palatino-Roman-35" x="125"/>
      </g>
     </g>
    </g>
    <g id="ytick_7">
     <g id="line2d_12">
      <g>
       <use xlink:href="#mcfacb203f6" x="27" y="88.92" style="stroke: #000000; stroke-width: 0.8"/>
      </g>
     </g>
     <g id="text_13">
      <!-- 0.50 -->
      <g transform="translate(2.5 92.5575)scale(0.1 -0.1)">
       <use xlink:href="#Palatino-Roman-30"/>
       <use xlink:href="#Palatino-Roman-2e" x="50"/>
       <use xlink:href="#Palatino-Roman-35" x="75"/>
       <use xlink:href="#Palatino-Roman-30" x="125"/>
      </g>
     </g>
    </g>
    <g id="ytick_8">
     <g id="line2d_13">
      <g>
       <use xlink:href="#mcfacb203f6" x="27" y="61.74" style="stroke: #000000; stroke-width: 0.8"/>
      </g>
     </g>
     <g id="text_14">
      <!-- 0.75 -->
      <g transform="translate(2.5 65.3775)scale(0.1 -0.1)">
       <use xlink:href="#Palatino-Roman-30"/>
       <use xlink:href="#Palatino-Roman-2e" x="50"/>
       <use xlink:href="#Palatino-Roman-37" x="75"/>
       <use xlink:href="#Palatino-Roman-35" x="125"/>
      </g>
     </g>
    </g>
    <g id="ytick_9">
     <g id="line2d_14">
      <g>
       <use xlink:href="#mcfacb203f6" x="27" y="34.56" style="stroke: #000000; stroke-width: 0.8"/>
      </g>
     </g>
     <g id="text_15">
      <!-- 1.00 -->
      <g transform="translate(2.5 38.1975)scale(0.1 -0.1)">
       <use xlink:href="#Palatino-Roman-31"/>
       <use xlink:href="#Palatino-Roman-2e" x="50"/>
       <use xlink:href="#Palatino-Roman-30" x="75"/>
       <use xlink:href="#Palatino-Roman-30" x="125"/>
      </g>
     </g>
    </g>
    <g id="text_16">
     <!-- E(V) -->
     <g transform="translate(-10.865 155.273438)rotate(-90)scale(0.12 -0.12)">
      <defs>
       <path id="Palatino-Roman-45" d="M 222 0 
L 222 197 
Q 550 200 653 247 
Q 697 266 716 306 
Q 747 369 759 634 
Q 778 1047 778 1347 
L 778 2944 
Q 778 3369 769 3775 
Q 759 4072 723 4126 
Q 688 4181 608 4207 
Q 528 4234 156 4241 
L 156 4441 
L 1047 4422 
L 1991 4438 
Q 2669 4447 2975 4447 
Q 3284 4447 3559 4413 
Q 3509 4234 3491 4103 
Q 3484 4075 3434 3453 
L 3238 3453 
Q 3241 3772 3197 4034 
Q 3025 4106 2819 4131 
Q 2469 4175 2119 4175 
Q 2044 4175 1784 4162 
Q 1525 4150 1413 4141 
Q 1400 3794 1394 3491 
L 1381 2434 
Q 1747 2416 2053 2416 
Q 2425 2416 2688 2450 
Q 2788 2463 2816 2500 
Q 2844 2538 2866 2756 
L 2884 2975 
L 3072 2975 
L 3072 2916 
L 3056 2266 
L 3072 1538 
L 2853 1538 
L 2844 1750 
Q 2838 1981 2802 2037 
Q 2766 2094 2666 2116 
Q 2488 2153 1975 2153 
Q 1766 2153 1381 2138 
Q 1366 1825 1366 1209 
Q 1366 631 1381 331 
Q 1831 297 2391 297 
Q 2788 297 2956 322 
Q 3125 347 3269 406 
Q 3306 503 3344 669 
Q 3413 947 3434 1088 
L 3641 1088 
Q 3559 456 3559 41 
Q 3291 0 2906 0 
L 1041 25 
Q 1000 25 222 0 
z
" transform="scale(0.015625)"/>
       <path id="Palatino-Roman-28" d="M 1763 -1063 
Q 1097 -500 737 275 
Q 378 1050 378 1969 
Q 378 2506 495 2947 
Q 613 3388 809 3745 
Q 1006 4103 1275 4428 
Q 1544 4753 1791 4931 
L 1916 4772 
Q 1416 4231 1170 3554 
Q 925 2878 925 1991 
Q 925 1028 1154 375 
Q 1384 -278 1916 -925 
L 1763 -1063 
z
" transform="scale(0.015625)"/>
       <path id="Palatino-Roman-56" d="M 2150 -31 
Q 2056 241 1759 1019 
L 697 3647 
Q 528 4066 488 4131 
Q 459 4172 409 4191 
Q 341 4222 66 4241 
L 66 4441 
Q 631 4416 900 4416 
Q 1153 4416 1759 4441 
L 1759 4219 
Q 1378 4213 1317 4203 
Q 1256 4194 1232 4167 
Q 1209 4141 1209 4106 
Q 1209 4072 1253 3944 
Q 1388 3528 1488 3275 
L 2466 806 
L 3281 2853 
Q 3459 3294 3622 3813 
Q 3691 4034 3691 4088 
Q 3691 4163 3609 4188 
Q 3547 4209 3128 4241 
L 3128 4441 
Q 3600 4422 3838 4422 
Q 4081 4422 4509 4441 
L 4509 4241 
Q 4272 4231 4225 4209 
Q 4178 4188 4138 4122 
Q 4109 4075 3906 3616 
L 2931 1216 
L 2691 600 
Q 2616 416 2569 281 
Q 2522 147 2466 -31 
L 2150 -31 
z
" transform="scale(0.015625)"/>
       <path id="Palatino-Roman-29" d="M 506 -1063 
L 378 -903 
Q 878 -363 1123 315 
Q 1369 994 1369 1881 
Q 1369 2844 1139 3497 
Q 909 4150 378 4797 
L 531 4931 
Q 1197 4369 1556 3594 
Q 1916 2819 1916 1900 
Q 1916 1366 1798 925 
Q 1681 484 1484 125 
Q 1288 -234 1019 -557 
Q 750 -881 506 -1063 
z
" transform="scale(0.015625)"/>
      </defs>
      <use xlink:href="#Palatino-Roman-45"/>
      <use xlink:href="#Palatino-Roman-28" x="61.083984"/>
      <use xlink:href="#Palatino-Roman-56" x="94.384766"/>
      <use xlink:href="#Palatino-Roman-29" x="166.601562"/>
     </g>
    </g>
   </g>
   <g id="line2d_15">
    <path d="M 27 143.28 
L 28.972727 144.187098 
L 30.945455 145.094196 
L 32.918182 146.001295 
L 34.890909 146.908393 
L 36.863636 147.815491 
L 38.836364 148.722589 
L 40.809091 149.629687 
L 42.781818 150.536785 
L 44.754545 151.443884 
L 46.727273 152.350982 
L 48.7 153.25808 
L 50.672727 154.165178 
L 52.645455 155.072276 
L 54.618182 155.979375 
L 56.590909 156.886473 
L 58.563636 157.793571 
L 60.536364 158.700669 
L 62.509091 159.607767 
L 64.481818 160.514865 
L 66.454545 161.421964 
L 68.427273 162.329062 
L 70.4 163.23616 
L 72.372727 164.143258 
L 74.345455 165.050356 
L 76.318182 165.957455 
L 78.290909 166.864553 
L 80.263636 167.771651 
L 82.236364 168.678749 
L 84.209091 169.585847 
L 86.181818 170.492945 
L 88.154545 171.400044 
L 90.127273 172.307142 
L 92.1 173.21424 
L 94.072727 174.121338 
L 96.045455 175.028436 
L 98.018182 175.935535 
L 99.990909 176.842633 
L 101.963636 177.749731 
L 103.936364 178.656829 
L 105.909091 179.563927 
L 107.881818 180.471025 
L 109.854545 181.378124 
L 111.827273 182.285222 
L 113.8 183.19232 
L 115.772727 184.099418 
L 117.745455 185.006516 
L 119.718182 185.913615 
L 121.690909 186.820713 
L 123.663636 187.727811 
L 125.636364 188.634909 
L 127.609091 189.542007 
L 129.581818 190.449105 
L 131.554545 191.356204 
L 133.527273 192.263302 
L 135.5 193.1704 
L 137.472727 194.077498 
L 139.445455 194.984596 
L 141.418182 195.891695 
L 143.390909 196.798793 
L 145.363636 197.705891 
L 147.336364 198.612989 
L 149.309091 199.520087 
L 151.281818 200.427185 
L 153.254545 201.334284 
L 155.227273 202.241382 
L 157.2 203.14848 
L 159.172727 204.055578 
L 161.145455 204.962676 
L 163.118182 205.869775 
L 165.090909 206.776873 
L 167.063636 207.683971 
L 169.036364 208.591069 
L 171.009091 209.498167 
L 172.981818 210.405265 
L 174.954545 211.312364 
L 176.927273 212.219462 
L 178.9 213.12656 
L 180.872727 214.033658 
L 182.845455 214.940756 
L 184.818182 215.847855 
L 186.790909 216.754953 
L 188.763636 217.662051 
L 190.736364 218.569149 
L 192.709091 219.476247 
L 194.681818 220.383345 
L 196.654545 221.290444 
L 198.627273 222.197542 
L 200.6 223.10464 
L 202.572727 224.011738 
L 204.545455 224.918836 
L 206.518182 225.825935 
L 208.490909 226.733033 
L 210.463636 227.640131 
L 212.436364 228.547229 
L 214.409091 229.454327 
L 216.381818 230.361425 
L 217 230.645677 
" clip-path="url(#p29520c2f9a)" style="fill: none; stroke-dasharray: 5.55,2.4; stroke-dashoffset: 0; stroke: #000000; stroke-width: 1.5"/>
   </g>
   <g id="line2d_16">
    <path d="M 27 3.0312 
L 28.972727 3.938298 
L 30.945455 4.845396 
L 32.918182 5.752495 
L 34.890909 6.659593 
L 36.863636 7.566691 
L 38.836364 8.473789 
L 40.809091 9.380887 
L 42.781818 10.287985 
L 44.754545 11.195084 
L 46.727273 12.102182 
L 48.7 13.00928 
L 50.672727 13.916378 
L 52.645455 14.823476 
L 54.618182 15.730575 
L 56.590909 16.637673 
L 58.563636 17.544771 
L 60.536364 18.451869 
L 62.509091 19.358967 
L 64.481818 20.266065 
L 66.454545 21.173164 
L 68.427273 22.080262 
L 70.4 22.98736 
L 72.372727 23.894458 
L 74.345455 24.801556 
L 76.318182 25.708655 
L 78.290909 26.615753 
L 80.263636 27.522851 
L 82.236364 28.429949 
L 84.209091 29.337047 
L 86.181818 30.244145 
L 88.154545 31.151244 
L 90.127273 32.058342 
L 92.1 32.96544 
L 94.072727 33.872538 
L 96.045455 34.779636 
L 98.018182 35.686735 
L 99.990909 36.593833 
L 101.963636 37.500931 
L 103.936364 38.408029 
L 105.909091 39.315127 
L 107.881818 40.222225 
L 109.854545 41.129324 
L 111.827273 42.036422 
L 113.8 42.94352 
L 115.772727 43.850618 
L 117.745455 44.757716 
L 119.718182 45.664815 
L 121.690909 46.571913 
L 123.663636 47.479011 
L 125.636364 48.386109 
L 127.609091 49.293207 
L 129.581818 50.200305 
L 131.554545 51.107404 
L 133.527273 52.014502 
L 135.5 52.9216 
L 137.472727 53.828698 
L 139.445455 54.735796 
L 141.418182 55.642895 
L 143.390909 56.549993 
L 145.363636 57.457091 
L 147.336364 58.364189 
L 149.309091 59.271287 
L 151.281818 60.178385 
L 153.254545 61.085484 
L 155.227273 61.992582 
L 157.2 62.89968 
L 159.172727 63.806778 
L 161.145455 64.713876 
L 163.118182 65.620975 
L 165.090909 66.528073 
L 167.063636 67.435171 
L 169.036364 68.342269 
L 171.009091 69.249367 
L 172.981818 70.156465 
L 174.954545 71.063564 
L 176.927273 71.970662 
L 178.9 72.87776 
L 180.872727 73.784858 
L 182.845455 74.691956 
L 184.818182 75.599055 
L 186.790909 76.506153 
L 188.763636 77.413251 
L 190.736364 78.320349 
L 192.709091 79.227447 
L 194.681818 80.134545 
L 196.654545 81.041644 
L 198.627273 81.948742 
L 200.6 82.85584 
L 202.572727 83.762938 
L 204.545455 84.670036 
L 206.518182 85.577135 
L 208.490909 86.484233 
L 210.463636 87.391331 
L 212.436364 88.298429 
L 214.409091 89.205527 
L 216.381818 90.112625 
L 217 90.396877 
" clip-path="url(#p29520c2f9a)" style="fill: none; stroke-dasharray: 5.55,2.4; stroke-dashoffset: 0; stroke: #000000; stroke-width: 1.5"/>
   </g>
   <g id="line2d_17">
    <path d="M 85.59 120.034 
L 86.689091 120.541097 
L 87.788182 121.048193 
L 88.887273 121.555289 
L 89.986364 122.062386 
L 91.085455 122.569482 
L 92.184545 123.076579 
L 93.283636 123.583675 
L 94.382727 124.090772 
L 95.481818 124.597868 
L 96.580909 125.104965 
L 97.68 125.612061 
L 98.779091 126.119157 
L 99.878182 126.626254 
L 100.977273 127.13335 
L 102.076364 127.640447 
L 103.175455 128.147543 
L 104.274545 128.65464 
L 105.373636 129.161736 
L 106.472727 129.668832 
L 107.571818 130.175929 
L 108.670909 130.683025 
L 109.77 131.190122 
L 110.869091 131.697218 
L 111.968182 132.204315 
L 113.067273 132.711411 
L 114.166364 133.218508 
L 115.265455 133.725604 
L 116.364545 134.2327 
L 117.463636 134.739797 
L 118.562727 135.246893 
L 119.661818 135.75399 
L 120.760909 136.261086 
L 121.86 136.768183 
L 122.959091 137.275279 
L 124.058182 137.782375 
L 125.157273 138.289472 
L 126.256364 138.796568 
L 127.355455 139.303665 
L 128.454545 139.810761 
L 129.553636 140.317858 
L 130.652727 140.824954 
L 131.751818 141.33205 
L 132.850909 141.839147 
L 133.95 142.346243 
L 135.049091 142.85334 
L 136.148182 143.360436 
L 137.247273 143.867533 
L 138.346364 144.374629 
L 139.445455 144.881726 
L 140.544545 145.388822 
L 141.643636 145.895918 
L 142.742727 146.403015 
L 143.841818 146.910111 
L 144.940909 147.417208 
L 146.04 147.924304 
L 147.139091 148.431401 
L 148.238182 148.938497 
L 149.337273 149.445593 
L 150.436364 149.95269 
L 151.535455 150.459786 
L 152.634545 150.966883 
L 153.733636 151.473979 
L 154.832727 151.981076 
L 155.931818 152.488172 
L 157.030909 152.995269 
L 158.13 153.502365 
L 159.229091 154.009461 
L 160.328182 154.516558 
L 161.427273 155.023654 
L 162.526364 155.530751 
L 163.625455 156.037847 
L 164.724545 156.544944 
L 165.823636 157.05204 
L 166.922727 157.559136 
L 168.021818 158.066233 
L 169.120909 158.573329 
L 170.22 159.080426 
L 171.319091 159.587522 
L 172.418182 160.094619 
L 173.517273 160.601715 
L 174.616364 161.108812 
L 175.715455 161.615908 
L 176.814545 162.123004 
L 177.913636 162.630101 
L 179.012727 163.137197 
L 180.111818 163.644294 
L 181.210909 164.15139 
L 182.31 164.658487 
L 183.409091 165.165583 
L 184.508182 165.672679 
L 185.607273 166.179776 
L 186.706364 166.686872 
L 187.805455 167.193969 
L 188.904545 167.701065 
L 190.003636 168.208162 
L 191.102727 168.715258 
L 192.201818 169.222354 
L 193.300909 169.729451 
L 194.4 170.236547 
" clip-path="url(#p29520c2f9a)" style="fill: none; stroke: #000000; stroke-width: 3; stroke-linecap: square"/>
   </g>
   <g id="line2d_18">
    <path d="M 84.195 119.626973 
L 84.440047 119.513914 
L 84.685094 119.400854 
L 84.930141 119.287795 
L 85.175188 119.174736 
L 85.420235 119.061676 
L 85.665282 118.948617 
L 85.910329 118.835558 
L 86.155376 118.722498 
L 86.400423 118.609439 
L 86.64547 118.49638 
L 86.890517 118.38332 
L 87.135564 118.270261 
L 87.380612 118.157202 
L 87.625659 118.044142 
L 87.870706 117.931083 
L 88.115753 117.818024 
L 88.3608 117.704964 
L 88.605847 117.591905 
L 88.850894 117.478846 
L 89.095941 117.365786 
L 89.340988 117.252727 
L 89.586035 117.139668 
L 89.831082 117.026608 
L 90.076129 116.913549 
L 90.321176 116.80049 
L 90.566223 116.68743 
L 90.81127 116.574371 
L 91.056317 116.461312 
L 91.301364 116.348252 
L 91.546411 116.235193 
L 91.791458 116.122134 
L 92.036505 116.009074 
L 92.281552 115.896015 
L 92.526599 115.782956 
L 92.771646 115.669896 
L 93.016693 115.556837 
L 93.261741 115.443778 
L 93.506788 115.330719 
L 93.751835 115.217659 
L 93.996882 115.1046 
L 94.241929 114.991541 
L 94.486976 114.878481 
L 94.732023 114.765422 
L 94.97707 114.652363 
L 95.222117 114.539303 
L 95.467164 114.426244 
L 95.712211 114.313185 
L 95.957258 114.200125 
L 96.202305 114.087066 
L 96.447352 113.974007 
L 96.692399 113.860947 
L 96.937446 113.747888 
L 97.182493 113.634829 
L 97.42754 113.521769 
L 97.672587 113.40871 
L 97.917634 113.295651 
L 98.162681 113.182591 
L 98.407728 113.069532 
L 98.652775 112.956473 
L 98.897822 112.843413 
L 99.14287 112.730354 
L 99.387917 112.617295 
L 99.632964 112.504235 
L 99.878011 112.391176 
L 100.123058 112.278117 
L 100.368105 112.165057 
L 100.613152 112.051998 
L 100.858199 111.938939 
L 101.103246 111.825879 
L 101.348293 111.71282 
L 101.59334 111.599761 
L 101.838387 111.486701 
L 102.083434 111.373642 
L 102.328481 111.260583 
L 102.573528 111.147523 
L 102.818575 111.034464 
L 103.063622 110.921405 
L 103.308669 110.808345 
L 103.553716 110.695286 
L 103.798763 110.582227 
L 104.04381 110.469167 
L 104.288857 110.356108 
L 104.533904 110.243049 
L 104.778951 110.129989 
L 105.023999 110.01693 
L 105.269046 109.903871 
L 105.514093 109.790811 
L 105.75914 109.677752 
L 106.004187 109.564693 
L 106.249234 109.451633 
L 106.494281 109.338574 
L 106.739328 109.225515 
L 106.984375 109.112455 
L 107.229422 108.999396 
L 107.474469 108.886337 
L 107.719516 108.773277 
L 107.964563 108.660218 
L 108.20961 108.547159 
L 108.454657 108.434099 
" clip-path="url(#p29520c2f9a)" style="fill: none; stroke: #000000; stroke-linecap: square"/>
   </g>
   <g id="line2d_19">
    <path d="M 108.454657 108.486561 
L 109.322792 108.887099 
L 110.190927 109.287637 
L 111.059061 109.688176 
L 111.927196 110.088714 
L 112.795331 110.489252 
L 113.663466 110.889791 
L 114.531601 111.290329 
L 115.399735 111.690867 
L 116.26787 112.091406 
L 117.136005 112.491944 
L 118.00414 112.892482 
L 118.872274 113.293021 
L 119.740409 113.693559 
L 120.608544 114.094098 
L 121.476679 114.494636 
L 122.344814 114.895174 
L 123.212948 115.295713 
L 124.081083 115.696251 
L 124.949218 116.096789 
L 125.817353 116.497328 
L 126.685487 116.897866 
L 127.553622 117.298404 
L 128.421757 117.698943 
L 129.289892 118.099481 
L 130.158027 118.500019 
L 131.026161 118.900558 
L 131.894296 119.301096 
L 132.762431 119.701634 
L 133.630566 120.102173 
L 134.4987 120.502711 
L 135.366835 120.903249 
L 136.23497 121.303788 
L 137.103105 121.704326 
L 137.97124 122.104864 
L 138.839374 122.505403 
L 139.707509 122.905941 
L 140.575644 123.306479 
L 141.443779 123.707018 
L 142.311913 124.107556 
L 143.180048 124.508094 
L 144.048183 124.908633 
L 144.916318 125.309171 
L 145.784452 125.709709 
L 146.652587 126.110248 
L 147.520722 126.510786 
L 148.388857 126.911324 
L 149.256992 127.311863 
L 150.125126 127.712401 
L 150.993261 128.11294 
L 151.861396 128.513478 
L 152.729531 128.914016 
L 153.597665 129.314555 
L 154.4658 129.715093 
L 155.333935 130.115631 
L 156.20207 130.51617 
L 157.070205 130.916708 
L 157.938339 131.317246 
L 158.806474 131.717785 
L 159.674609 132.118323 
L 160.542744 132.518861 
L 161.410878 132.9194 
L 162.279013 133.319938 
L 163.147148 133.720476 
L 164.015283 134.121015 
L 164.883418 134.521553 
L 165.751552 134.922091 
L 166.619687 135.32263 
L 167.487822 135.723168 
L 168.355957 136.123706 
L 169.224091 136.524245 
L 170.092226 136.924783 
L 170.960361 137.325321 
L 171.828496 137.72586 
L 172.696631 138.126398 
L 173.564765 138.526936 
L 174.4329 138.927475 
L 175.301035 139.328013 
L 176.16917 139.728551 
L 177.037304 140.12909 
L 177.905439 140.529628 
L 178.773574 140.930167 
L 179.641709 141.330705 
L 180.509844 141.731243 
L 181.377978 142.131782 
L 182.246113 142.53232 
L 183.114248 142.932858 
L 183.982383 143.333397 
L 184.850517 143.733935 
L 185.718652 144.134473 
L 186.586787 144.535012 
L 187.454922 144.93555 
L 188.323057 145.336088 
L 189.191191 145.736627 
L 190.059326 146.137165 
L 190.927461 146.537703 
L 191.795596 146.938242 
L 192.66373 147.33878 
L 193.531865 147.739318 
L 194.4 148.139857 
" clip-path="url(#p29520c2f9a)" style="fill: none; stroke: #000000; stroke-width: 3; stroke-linecap: square"/>
   </g>
   <g id="line2d_20">
    <path d="M 27 119.492064 
L 83.916 119.492064 
" clip-path="url(#p29520c2f9a)" style="fill: none; stroke: #000000; stroke-linecap: square"/>
   </g>
   <g id="line2d_21">
    <path d="M 108.454657 107.4024 
L 108.454657 34.56 
" clip-path="url(#p29520c2f9a)" style="fill: none; stroke: #000000; stroke-linecap: square"/>
   </g>
   <g id="patch_3">
    <path d="M 27 252 
L 27 34.56 
" style="fill: none; stroke: #000000; stroke-width: 0.8; stroke-linejoin: miter; stroke-linecap: square"/>
   </g>
   <g id="patch_4">
    <path d="M 194.4 252 
L 194.4 34.56 
" style="fill: none; stroke: #000000; stroke-width: 0.8; stroke-linejoin: miter; stroke-linecap: square"/>
   </g>
   <g id="patch_5">
    <path d="M 27 252 
L 194.4 252 
" style="fill: none; stroke: #000000; stroke-width: 0.8; stroke-linejoin: miter; stroke-linecap: square"/>
   </g>
   <g id="patch_6">
    <path d="M 27 34.56 
L 194.4 34.56 
" style="fill: none; stroke: #000000; stroke-width: 0.8; stroke-linejoin: miter; stroke-linecap: square"/>
   </g>
   <g id="text_17">
    <!-- Pourbaix Diagram for Cu System -->
    <g transform="translate(22.5825 28.56)scale(0.12 -0.12)">
     <defs>
      <path id="Palatino-Roman-50" d="M 169 4241 
L 169 4441 
Q 797 4422 1163 4422 
Q 1406 4422 1681 4428 
L 2172 4444 
Q 2253 4447 2322 4447 
Q 2819 4447 3103 4337 
Q 3388 4228 3547 3989 
Q 3706 3750 3706 3444 
Q 3706 3169 3573 2897 
Q 3441 2625 3187 2436 
Q 2934 2247 2659 2166 
Q 2472 2109 2234 2109 
Q 2034 2109 1803 2153 
L 1738 2384 
Q 2016 2322 2175 2322 
Q 2409 2322 2620 2436 
Q 2831 2550 2948 2779 
Q 3066 3009 3066 3288 
Q 3066 3556 2952 3773 
Q 2838 3991 2605 4103 
Q 2372 4216 2041 4216 
Q 1744 4216 1403 4109 
Q 1375 3778 1375 3072 
L 1375 1497 
Q 1375 1072 1384 669 
Q 1394 372 1430 315 
Q 1466 259 1545 232 
Q 1625 206 1997 200 
L 1997 0 
Q 1419 25 1147 25 
Q 1041 25 169 0 
L 169 200 
Q 538 206 619 232 
Q 700 259 731 306 
Q 769 369 778 609 
Q 781 675 791 1497 
L 791 2944 
Q 791 3369 781 3775 
Q 772 4072 736 4126 
Q 700 4181 620 4207 
Q 541 4234 169 4241 
z
" transform="scale(0.015625)"/>
      <path id="Palatino-Roman-6f" d="M 213 1438 
Q 213 2138 658 2580 
Q 1103 3022 1800 3022 
Q 2456 3022 2868 2609 
Q 3281 2197 3281 1544 
Q 3281 1088 3068 709 
Q 2856 331 2468 117 
Q 2081 -97 1616 -97 
Q 1253 -97 1001 25 
Q 750 147 594 331 
Q 438 516 356 709 
Q 213 1050 213 1438 
z
M 803 1669 
Q 803 1284 931 887 
Q 1059 491 1301 308 
Q 1544 125 1828 125 
Q 2191 125 2434 412 
Q 2678 700 2678 1297 
Q 2678 1794 2533 2155 
Q 2388 2516 2163 2664 
Q 1938 2813 1666 2813 
Q 1281 2813 1042 2534 
Q 803 2256 803 1669 
z
" transform="scale(0.015625)"/>
      <path id="Palatino-Roman-75" d="M 3697 178 
L 3697 0 
Q 3288 22 3078 22 
Q 2847 22 2609 0 
Q 2628 253 2638 569 
Q 2450 419 2191 159 
Q 2131 100 2075 72 
Q 1941 -3 1806 -36 
Q 1672 -69 1484 -69 
Q 1231 -69 1061 0 
Q 891 69 769 209 
Q 678 313 629 477 
Q 581 641 581 872 
Q 581 981 589 1078 
Q 597 1175 597 1269 
L 597 1803 
Q 597 1884 588 2213 
Q 581 2419 559 2481 
Q 547 2513 519 2531 
Q 472 2563 353 2563 
Q 181 2563 81 2566 
L 81 2744 
Q 753 2819 1056 2984 
Q 1106 3013 1134 3013 
Q 1156 3013 1170 2997 
Q 1184 2981 1184 2950 
Q 1184 2925 1181 2888 
Q 1169 2788 1159 2503 
Q 1141 1981 1141 1803 
L 1141 1194 
Q 1141 813 1192 658 
Q 1244 503 1392 411 
Q 1541 319 1759 319 
Q 1909 319 2057 370 
Q 2206 422 2325 519 
Q 2413 591 2503 713 
Q 2572 803 2594 851 
Q 2616 900 2622 994 
Q 2638 1269 2638 1541 
L 2638 1803 
Q 2638 1884 2628 2213 
Q 2622 2419 2600 2481 
Q 2588 2513 2559 2531 
Q 2513 2563 2394 2563 
Q 2222 2563 2122 2566 
L 2122 2744 
Q 2794 2819 3097 2984 
Q 3147 3013 3175 3013 
Q 3197 3013 3211 2997 
Q 3225 2981 3225 2950 
Q 3225 2925 3222 2888 
Q 3213 2788 3200 2491 
Q 3181 1981 3181 1803 
L 3181 1375 
L 3188 941 
Q 3197 563 3200 497 
Q 3203 341 3234 269 
Q 3250 241 3275 220 
Q 3300 200 3350 188 
Q 3369 184 3697 178 
z
" transform="scale(0.015625)"/>
      <path id="Palatino-Roman-72" d="M 147 0 
L 147 178 
Q 500 184 528 191 
Q 581 200 607 220 
Q 634 241 650 278 
Q 681 350 688 503 
Q 706 1338 706 1375 
L 706 1747 
Q 706 1997 697 2284 
Q 691 2469 670 2503 
Q 650 2538 598 2555 
Q 547 2572 191 2569 
L 191 2747 
Q 822 2834 1113 2975 
Q 1175 3006 1197 3006 
Q 1219 3006 1231 2990 
Q 1244 2975 1244 2944 
Q 1244 2922 1241 2894 
Q 1225 2703 1222 2303 
Q 1363 2466 1481 2625 
Q 1600 2784 1653 2831 
Q 1747 2913 1869 2961 
Q 1991 3009 2122 3009 
Q 2253 3009 2381 2953 
L 2400 2909 
Q 2353 2494 2347 2178 
L 2206 2178 
Q 2134 2328 2039 2397 
Q 1944 2466 1800 2466 
Q 1559 2466 1390 2267 
Q 1222 2069 1222 1672 
L 1222 1350 
Q 1222 1144 1238 597 
Q 1241 403 1253 350 
Q 1266 297 1286 273 
Q 1306 250 1353 234 
Q 1447 206 1859 178 
L 1859 0 
Q 1309 22 922 22 
Q 522 22 147 0 
z
" transform="scale(0.015625)"/>
      <path id="Palatino-Roman-62" d="M 406 -13 
Q 444 381 447 484 
Q 466 1163 466 1281 
L 466 2672 
Q 466 3194 447 3750 
Q 434 4125 413 4169 
Q 397 4200 363 4213 
Q 316 4234 -69 4234 
L -69 4419 
Q 638 4506 913 4638 
Q 953 4656 975 4656 
Q 997 4656 1009 4642 
Q 1022 4628 1022 4603 
Q 1022 4581 1016 4541 
L 1013 4438 
Q 997 3878 994 3484 
L 988 2997 
L 988 2378 
L 1419 2800 
Q 1503 2872 1697 2940 
Q 1891 3009 2109 3009 
Q 2453 3009 2718 2848 
Q 2984 2688 3126 2394 
Q 3269 2100 3269 1744 
Q 3269 1469 3187 1222 
Q 3106 975 2978 781 
Q 2884 634 2819 581 
L 2363 253 
Q 2084 47 1928 -11 
Q 1772 -69 1528 -69 
Q 1319 -69 1141 -12 
Q 963 44 763 184 
L 509 -53 
L 406 -13 
z
M 988 2003 
L 988 831 
Q 988 675 1005 631 
Q 1022 588 1109 516 
Q 1241 406 1414 340 
Q 1588 275 1781 275 
Q 2234 275 2478 625 
Q 2722 975 2722 1491 
Q 2722 1856 2606 2103 
Q 2491 2350 2287 2473 
Q 2084 2597 1831 2597 
Q 1534 2597 1300 2426 
Q 1066 2256 988 2003 
z
" transform="scale(0.015625)"/>
      <path id="Palatino-Roman-61" d="M 678 2141 
L 513 2184 
Q 516 2256 516 2381 
Q 516 2513 513 2591 
Q 909 2850 1163 2941 
Q 1356 3006 1597 3006 
Q 1953 3006 2197 2872 
Q 2441 2738 2559 2488 
Q 2641 2313 2641 2009 
L 2628 1438 
L 2628 506 
Q 2628 356 2653 291 
Q 2672 244 2713 222 
Q 2744 203 2844 197 
L 3047 178 
L 3047 0 
Q 2791 22 2597 22 
Q 2409 22 2097 0 
L 2113 550 
Q 1475 69 1356 8 
Q 1238 -53 1056 -53 
Q 678 -53 467 148 
Q 256 350 256 684 
Q 256 900 329 1078 
Q 403 1256 506 1361 
Q 609 1466 716 1516 
Q 897 1600 1305 1697 
Q 1713 1794 2113 1841 
Q 2116 2138 2041 2303 
Q 1966 2469 1787 2575 
Q 1609 2681 1353 2681 
Q 1169 2681 1030 2631 
Q 891 2581 859 2547 
L 803 2434 
Q 719 2247 678 2141 
z
M 2113 1650 
Q 1706 1581 1418 1497 
Q 1131 1413 1013 1322 
Q 941 1269 888 1163 
Q 806 1006 806 816 
Q 806 584 934 454 
Q 1063 325 1291 325 
Q 1500 325 1704 445 
Q 1909 566 2113 806 
L 2113 1650 
z
" transform="scale(0.015625)"/>
      <path id="Palatino-Roman-69" d="M 903 4400 
Q 1050 4400 1151 4297 
Q 1253 4194 1253 4047 
Q 1253 3903 1150 3800 
Q 1047 3697 903 3697 
Q 756 3697 653 3800 
Q 550 3903 550 4047 
Q 550 4194 653 4297 
Q 756 4400 903 4400 
z
M 141 2572 
L 141 2750 
Q 747 2819 1159 3013 
L 1228 2963 
Q 1203 2297 1203 1944 
L 1203 1375 
Q 1219 563 1222 497 
Q 1225 341 1256 269 
Q 1272 241 1297 220 
Q 1322 200 1372 188 
Q 1391 184 1719 178 
L 1719 0 
Q 1244 22 959 22 
Q 709 22 141 0 
L 141 178 
L 438 181 
Q 503 184 539 204 
Q 575 225 594 256 
Q 628 319 638 478 
Q 638 519 656 1375 
L 656 1925 
Q 656 2391 625 2478 
Q 606 2525 557 2548 
Q 509 2572 141 2572 
z
" transform="scale(0.015625)"/>
      <path id="Palatino-Roman-78" d="M 113 0 
L 113 178 
Q 263 178 347 222 
Q 459 284 650 506 
L 1381 1403 
L 1116 1797 
Q 903 2116 701 2366 
Q 500 2616 369 2694 
Q 319 2722 250 2722 
Q 222 2722 150 2716 
L 113 2894 
Q 475 2934 847 3016 
Q 966 2906 1066 2784 
Q 1238 2563 1484 2181 
L 1716 1816 
L 1909 2066 
Q 2138 2356 2553 2956 
Q 2716 2947 2797 2947 
Q 2872 2947 3031 2956 
L 3031 2781 
Q 2894 2778 2825 2731 
Q 2681 2634 2353 2231 
L 2053 1872 
L 1859 1619 
L 1975 1444 
Q 2050 1334 2376 882 
Q 2703 431 2838 288 
Q 2906 216 2953 197 
Q 3000 178 3138 178 
L 3138 0 
Q 2919 13 2744 13 
Q 2559 13 2356 0 
Q 2156 253 1997 488 
L 1522 1200 
Q 1175 797 659 0 
Q 534 13 384 13 
Q 238 13 113 0 
z
" transform="scale(0.015625)"/>
      <path id="Palatino-Roman-20" transform="scale(0.015625)"/>
      <path id="Palatino-Roman-44" d="M 281 0 
L 281 150 
Q 463 253 584 338 
Q 603 550 616 928 
Q 638 1572 638 1822 
L 638 3097 
Q 638 3403 619 3816 
Q 606 4075 575 4138 
Q 553 4178 509 4197 
Q 406 4241 81 4244 
L 81 4441 
Q 538 4422 888 4422 
Q 1156 4422 1620 4434 
Q 2084 4447 2341 4447 
Q 3106 4447 3572 4251 
Q 4038 4056 4363 3597 
Q 4688 3138 4688 2475 
Q 4688 2000 4534 1584 
Q 4381 1169 4118 858 
Q 3856 547 3556 365 
Q 3256 184 2926 92 
Q 2597 0 2022 0 
Q 1831 0 1506 13 
Q 1081 25 950 25 
Q 759 25 281 0 
z
M 1250 341 
Q 1594 281 1975 281 
Q 2369 281 2670 350 
Q 2972 419 3186 544 
Q 3400 669 3600 912 
Q 3800 1156 3908 1536 
Q 4016 1916 4016 2322 
Q 4016 2903 3808 3320 
Q 3600 3738 3181 3959 
Q 2763 4181 2031 4181 
Q 1647 4181 1250 4122 
Q 1241 3969 1234 3578 
L 1222 3125 
L 1222 1878 
L 1231 909 
Q 1234 688 1250 341 
z
" transform="scale(0.015625)"/>
      <path id="Palatino-Roman-67" d="M 3463 2766 
L 3488 2706 
Q 3366 2522 3328 2453 
L 2747 2453 
Q 2819 2269 2819 2106 
Q 2819 1869 2695 1642 
Q 2572 1416 2334 1255 
Q 2097 1094 1828 1038 
Q 1653 1000 1356 1006 
Q 1153 844 1100 763 
Q 1066 706 1066 641 
Q 1066 566 1111 508 
Q 1156 450 1250 428 
Q 1391 391 1750 391 
L 2425 403 
Q 2778 403 2961 311 
Q 3144 219 3231 30 
Q 3319 -159 3319 -397 
Q 3319 -719 3108 -1051 
Q 2897 -1384 2481 -1576 
Q 2066 -1769 1550 -1769 
Q 1119 -1769 816 -1634 
Q 513 -1500 367 -1275 
Q 222 -1050 222 -803 
Q 222 -666 264 -545 
Q 306 -425 406 -288 
Q 788 -113 953 19 
Q 694 103 620 178 
Q 547 253 547 328 
Q 547 391 641 666 
Q 794 794 1122 1028 
Q 841 1106 689 1211 
Q 538 1316 453 1495 
Q 369 1675 369 1891 
Q 369 2209 531 2461 
Q 694 2713 1078 2870 
Q 1463 3028 1791 3028 
Q 2003 3028 2195 2959 
Q 2388 2891 2559 2753 
Q 3147 2756 3463 2766 
z
M 906 2063 
Q 906 1841 989 1631 
Q 1072 1422 1233 1315 
Q 1394 1209 1600 1209 
Q 1869 1209 2075 1382 
Q 2281 1556 2281 1941 
Q 2281 2334 2075 2567 
Q 1869 2800 1578 2800 
Q 1275 2800 1090 2608 
Q 906 2416 906 2063 
z
M 1822 -34 
Q 1356 -34 1238 -47 
Q 1178 -56 1103 -109 
Q 856 -284 841 -303 
Q 809 -334 772 -431 
Q 706 -606 706 -784 
Q 706 -1113 961 -1339 
Q 1216 -1566 1663 -1566 
Q 1994 -1566 2267 -1433 
Q 2541 -1300 2680 -1070 
Q 2819 -841 2819 -609 
Q 2809 -409 2757 -306 
Q 2706 -203 2632 -143 
Q 2559 -84 2431 -47 
Q 2356 -38 1822 -34 
z
" transform="scale(0.015625)"/>
      <path id="Palatino-Roman-6d" d="M 131 0 
L 131 178 
L 428 181 
Q 494 184 530 204 
Q 566 225 584 256 
Q 619 319 628 478 
Q 628 519 647 1375 
L 647 1747 
Q 647 1997 638 2284 
Q 628 2469 608 2503 
Q 588 2538 538 2555 
Q 488 2572 131 2569 
L 131 2747 
Q 763 2834 1053 2975 
Q 1116 3006 1138 3006 
Q 1159 3006 1171 2990 
Q 1184 2975 1184 2944 
Q 1184 2922 1181 2894 
Q 1169 2744 1163 2447 
L 1572 2822 
Q 1650 2891 1669 2900 
Q 1741 2941 1875 2975 
Q 2009 3009 2156 3009 
Q 2456 3009 2690 2862 
Q 2925 2716 3050 2428 
L 3394 2747 
Q 3509 2853 3553 2878 
Q 3634 2925 3784 2965 
Q 3934 3006 4081 3006 
Q 4438 3006 4678 2817 
Q 4919 2628 4988 2388 
Q 5031 2228 5031 1700 
L 5031 1375 
L 5041 941 
Q 5050 563 5050 497 
Q 5056 341 5088 269 
Q 5100 241 5126 220 
Q 5153 200 5203 188 
Q 5222 184 5547 178 
L 5547 0 
Q 5153 19 5009 19 
Q 4872 19 4456 0 
L 4484 863 
L 4494 1200 
L 4494 1469 
Q 4494 1994 4441 2186 
Q 4388 2378 4217 2497 
Q 4047 2616 3822 2616 
Q 3563 2616 3353 2466 
Q 3197 2350 3147 2194 
Q 3097 2038 3097 1584 
L 3097 1375 
L 3106 941 
Q 3113 563 3116 497 
Q 3122 341 3153 269 
Q 3166 241 3191 220 
Q 3216 200 3266 188 
Q 3288 184 3613 178 
L 3613 0 
Q 3153 25 2875 25 
Q 2650 25 2056 0 
L 2056 178 
L 2353 181 
Q 2422 184 2458 204 
Q 2494 225 2513 256 
Q 2547 319 2553 478 
Q 2556 519 2572 1375 
L 2572 1619 
Q 2572 2022 2509 2208 
Q 2447 2394 2290 2505 
Q 2134 2616 1916 2616 
Q 1728 2616 1561 2536 
Q 1394 2456 1303 2337 
Q 1213 2219 1194 2084 
Q 1163 1869 1163 1566 
L 1163 1375 
Q 1181 563 1181 497 
Q 1188 341 1219 269 
Q 1231 241 1256 220 
Q 1281 200 1334 188 
Q 1353 184 1678 178 
L 1678 0 
Q 1247 25 944 25 
Q 675 25 131 0 
z
" transform="scale(0.015625)"/>
      <path id="Palatino-Roman-66" d="M 238 2444 
L 238 2572 
Q 481 2675 669 2791 
L 669 2978 
Q 669 3384 720 3551 
Q 772 3719 866 3850 
Q 1006 4044 1309 4344 
Q 1513 4541 1609 4591 
Q 1738 4656 1909 4656 
Q 2031 4656 2159 4616 
L 2172 4097 
L 2100 4069 
Q 2003 4150 1908 4187 
Q 1813 4225 1684 4225 
Q 1516 4225 1409 4156 
Q 1303 4088 1254 3959 
Q 1206 3831 1206 3438 
L 1206 2791 
L 1538 2791 
Q 1788 2791 2028 2809 
L 2059 2791 
L 1997 2469 
Q 1725 2481 1597 2481 
Q 1466 2481 1206 2469 
L 1206 1350 
Q 1206 1144 1222 597 
Q 1225 403 1237 350 
Q 1250 297 1270 273 
Q 1291 250 1338 234 
Q 1431 206 1844 178 
L 1844 0 
Q 1116 22 956 22 
Q 813 22 153 0 
L 153 178 
L 450 181 
Q 516 184 552 204 
Q 588 225 606 256 
Q 641 319 650 478 
Q 650 519 669 1375 
L 669 2469 
L 238 2444 
z
" transform="scale(0.015625)"/>
      <path id="Palatino-Roman-43" d="M 4359 553 
L 4238 263 
Q 3872 78 3522 -5 
Q 3172 -88 2759 -88 
Q 2275 -88 1859 34 
Q 1444 156 1133 382 
Q 822 609 625 890 
Q 428 1172 325 1501 
Q 222 1831 222 2225 
Q 222 3222 917 3876 
Q 1613 4531 2816 4531 
Q 3100 4531 3342 4498 
Q 3584 4466 3932 4373 
Q 4281 4281 4359 4266 
Q 4291 4094 4256 3928 
Q 4206 3663 4188 3313 
L 3991 3313 
L 3988 3681 
Q 3956 3988 3648 4138 
Q 3341 4288 2747 4288 
Q 2303 4281 1993 4173 
Q 1684 4066 1448 3833 
Q 1213 3600 1063 3242 
Q 913 2884 909 2344 
Q 909 1397 1487 820 
Q 2066 244 3016 244 
Q 3444 244 3809 363 
Q 4059 444 4306 619 
L 4359 553 
z
" transform="scale(0.015625)"/>
      <path id="Palatino-Roman-53" d="M 203 153 
Q 253 453 263 1125 
L 475 1125 
Q 491 669 527 586 
Q 563 503 700 409 
Q 838 316 1069 242 
Q 1300 169 1516 169 
Q 1831 169 2097 314 
Q 2363 459 2484 695 
Q 2606 931 2606 1200 
Q 2606 1406 2545 1556 
Q 2484 1706 2359 1798 
Q 2234 1891 2050 1928 
Q 1934 1947 1587 1990 
Q 1241 2034 997 2088 
Q 672 2188 519 2322 
Q 366 2456 270 2675 
Q 175 2894 175 3147 
Q 175 3516 367 3842 
Q 559 4169 936 4350 
Q 1313 4531 1753 4531 
Q 2019 4531 2333 4461 
Q 2647 4391 2919 4256 
Q 2875 4059 2856 3889 
Q 2838 3719 2828 3388 
L 2616 3388 
Q 2606 3869 2588 3913 
Q 2509 4025 2375 4116 
Q 2053 4297 1703 4297 
Q 1250 4297 979 4020 
Q 709 3744 709 3303 
Q 709 3038 806 2892 
Q 903 2747 1153 2659 
Q 1325 2600 1715 2548 
Q 2106 2497 2419 2438 
Q 2713 2350 2853 2229 
Q 2994 2109 3084 1914 
Q 3175 1719 3175 1456 
Q 3175 834 2659 371 
Q 2144 -91 1325 -91 
Q 706 -91 203 153 
z
" transform="scale(0.015625)"/>
      <path id="Palatino-Roman-79" d="M 141 -1672 
L 300 -1191 
L 375 -1191 
Q 434 -1241 476 -1270 
Q 519 -1300 567 -1315 
Q 616 -1331 709 -1331 
Q 806 -1331 898 -1289 
Q 991 -1247 1070 -1156 
Q 1150 -1066 1259 -844 
Q 1425 -509 1556 -163 
Q 1456 119 1316 469 
L 819 1700 
Q 597 2250 456 2544 
Q 400 2659 336 2698 
Q 272 2738 50 2763 
L 50 2938 
Q 438 2916 816 2916 
Q 1184 2916 1525 2938 
L 1525 2763 
Q 1203 2741 1156 2722 
Q 1075 2691 1075 2609 
Q 1075 2559 1128 2403 
Q 1250 2019 1359 1747 
L 1556 1259 
Q 1734 822 1856 550 
L 2022 919 
Q 2119 1138 2362 1750 
Q 2606 2363 2647 2506 
Q 2659 2556 2659 2594 
Q 2659 2653 2611 2686 
Q 2563 2719 2234 2750 
L 2234 2938 
Q 2597 2916 2875 2916 
Q 3156 2916 3431 2938 
L 3400 2750 
Q 3241 2744 3153 2681 
Q 3066 2619 2889 2261 
Q 2713 1903 2234 853 
L 1513 -834 
Q 1338 -1244 1209 -1419 
Q 1081 -1594 903 -1684 
Q 725 -1775 513 -1775 
Q 409 -1775 326 -1751 
Q 244 -1728 141 -1672 
z
" transform="scale(0.015625)"/>
      <path id="Palatino-Roman-73" d="M 291 944 
L 478 944 
Q 481 763 497 656 
Q 513 550 550 448 
Q 588 347 666 276 
Q 744 206 836 167 
Q 928 128 1023 115 
Q 1119 103 1313 103 
Q 1631 103 1836 272 
Q 2041 441 2041 734 
Q 2041 866 1977 966 
Q 1913 1066 1792 1122 
Q 1672 1178 1275 1268 
Q 878 1359 763 1400 
Q 588 1466 484 1559 
Q 381 1653 320 1797 
Q 259 1941 259 2109 
Q 259 2356 389 2564 
Q 519 2772 797 2901 
Q 1075 3031 1403 3031 
Q 1600 3031 1859 2976 
Q 2119 2922 2281 2841 
Q 2259 2494 2250 2134 
L 2072 2134 
Q 2056 2363 2036 2434 
Q 2016 2506 1981 2562 
Q 1947 2619 1862 2683 
Q 1778 2747 1645 2797 
Q 1513 2847 1319 2847 
Q 1044 2847 876 2684 
Q 709 2522 709 2303 
Q 709 2181 757 2093 
Q 806 2006 887 1951 
Q 969 1897 1116 1853 
L 1634 1725 
Q 2028 1625 2176 1553 
Q 2325 1481 2415 1329 
Q 2506 1178 2506 966 
Q 2506 544 2157 230 
Q 1809 -84 1225 -84 
Q 956 -84 509 -3 
Q 263 44 244 63 
Q 231 72 231 94 
Q 231 116 238 147 
Q 266 281 275 409 
Q 284 538 291 944 
z
" transform="scale(0.015625)"/>
      <path id="Palatino-Roman-74" d="M 144 2450 
L 144 2581 
Q 456 2700 641 2794 
Q 641 3538 622 3744 
Q 947 3856 1150 3984 
L 1225 3922 
Q 1191 3663 1150 2778 
Q 1400 2775 1450 2775 
Q 1478 2775 1772 2781 
Q 1934 2784 2016 2794 
L 2038 2772 
L 1972 2481 
Q 1775 2484 1609 2484 
Q 1444 2484 1150 2481 
L 1131 1209 
Q 1122 744 1137 653 
Q 1153 563 1197 495 
Q 1241 428 1311 387 
Q 1381 347 1550 325 
Q 1678 325 1758 336 
Q 1838 347 1959 391 
L 1997 269 
Q 1850 153 1713 28 
Q 1594 -16 1491 -30 
Q 1388 -44 1253 -44 
Q 1088 -44 989 -6 
Q 891 31 809 98 
Q 728 166 675 269 
Q 622 372 606 594 
Q 609 806 619 1059 
Q 622 1109 622 1169 
L 622 2466 
L 494 2466 
Q 338 2466 144 2450 
z
" transform="scale(0.015625)"/>
      <path id="Palatino-Roman-65" d="M 2763 484 
L 2663 259 
Q 2447 125 2347 81 
Q 2200 16 2011 -29 
Q 1822 -75 1613 -75 
Q 1200 -75 865 97 
Q 531 269 345 611 
Q 159 953 159 1413 
Q 159 1772 257 2061 
Q 356 2350 481 2488 
Q 572 2588 762 2717 
Q 953 2847 1141 2922 
Q 1388 3025 1675 3025 
Q 2025 3025 2308 2865 
Q 2591 2706 2722 2431 
Q 2853 2156 2853 1809 
Q 2853 1722 2841 1597 
Q 2616 1553 2438 1541 
Q 2100 1516 1763 1516 
L 759 1516 
Q 766 1069 914 792 
Q 1063 516 1323 384 
Q 1584 253 1866 253 
Q 2056 253 2245 314 
Q 2434 375 2713 538 
L 2763 484 
z
M 759 1763 
Q 847 1753 1091 1744 
Q 1556 1728 1731 1728 
Q 2147 1728 2278 1744 
Q 2281 1819 2281 1859 
Q 2281 2353 2081 2584 
Q 1881 2816 1547 2816 
Q 1194 2816 978 2562 
Q 763 2309 759 1763 
z
" transform="scale(0.015625)"/>
     </defs>
     <use xlink:href="#Palatino-Roman-50"/>
     <use xlink:href="#Palatino-Roman-6f" x="60.400391"/>
     <use xlink:href="#Palatino-Roman-75" x="114.990234"/>
     <use xlink:href="#Palatino-Roman-72" x="175.292969"/>
     <use xlink:href="#Palatino-Roman-62" x="214.794922"/>
     <use xlink:href="#Palatino-Roman-61" x="270.117188"/>
     <use xlink:href="#Palatino-Roman-69" x="320.117188"/>
     <use xlink:href="#Palatino-Roman-78" x="349.21875"/>
     <use xlink:href="#Palatino-Roman-20" x="400.830078"/>
     <use xlink:href="#Palatino-Roman-44" x="425.830078"/>
     <use xlink:href="#Palatino-Roman-69" x="503.222656"/>
     <use xlink:href="#Palatino-Roman-61" x="532.324219"/>
     <use xlink:href="#Palatino-Roman-67" x="582.324219"/>
     <use xlink:href="#Palatino-Roman-72" x="637.939453"/>
     <use xlink:href="#Palatino-Roman-61" x="677.441406"/>
     <use xlink:href="#Palatino-Roman-6d" x="727.441406"/>
     <use xlink:href="#Palatino-Roman-20" x="815.722656"/>
     <use xlink:href="#Palatino-Roman-66" x="840.722656"/>
     <use xlink:href="#Palatino-Roman-6f" x="874.023438"/>
     <use xlink:href="#Palatino-Roman-72" x="928.613281"/>
     <use xlink:href="#Palatino-Roman-20" x="968.115234"/>
     <use xlink:href="#Palatino-Roman-43" x="993.115234"/>
     <use xlink:href="#Palatino-Roman-75" x="1064.013672"/>
     <use xlink:href="#Palatino-Roman-20" x="1124.316406"/>
     <use xlink:href="#Palatino-Roman-53" x="1149.316406"/>
     <use xlink:href="#Palatino-Roman-79" x="1201.806641"/>
     <use xlink:href="#Palatino-Roman-73" x="1257.421875"/>
     <use xlink:href="#Palatino-Roman-74" x="1299.804688"/>
     <use xlink:href="#Palatino-Roman-65" x="1332.421875"/>
     <use xlink:href="#Palatino-Roman-6d" x="1380.322266"/>
    </g>
   </g>
  </g>
 </g>
 <defs>
  <clipPath id="p29520c2f9a">
   <rect x="27" y="34.56" width="167.4" height="217.44"/>
  </clipPath>
 </defs>
</svg>
